<svg xmlns="http://www.w3.org/2000/svg" viewBox="0 0 183.63 92.2" height="92" width="184"><defs><style>.cls-1{fill:#fff}</style></defs><path class="cls-1" d="M45.83 0A46.1 46.1 0 0 0 3.62 27.6a42.4 42.4 0 0 1 28.72 14.63 2.6 2.6 0 0 0 1.07.66c4 1.07 11.85 2.93 19.75 2.57-12.67-4.65-18.32-21.24-18.44-23.17 7.37.82 10.8.87 14.84 1.28 7.78.79 14.6 4.57 16.32 11.38a13.76 13.76 0 0 1 .43 4c2.14-3 2.87-5.76 6.27-6.69a6.13 6.13 0 0 1 7.39 2.83c-5.37 1.75-4.51 6.88-6.16 12.84-1.23 3.4-3.1 6.85-7.23 8.87-8.8 4.3-20.45 4.2-33.06-11.32-9.35-11.51-20.27-16-30.25-16.93A44.24 44.24 0 0 0-.02 44.92c11.88-2 24.71 4.61 32 9.16 15.74 9.7 28.79 9.22 35.74 4.39-5.64 5-16.94 7.18-32.26 1.85A60.82 60.82 0 0 0 15.6 56.6a30.76 30.76 0 0 0-13.88 2.86 46 46 0 0 0 8.49 15.87c7.61-7.07 18.39-9.34 36.19-8.72 11.22.39 18.32-2.32 22.43-6.67-3.4 4.46-9.41 7.56-17.89 9.21-15.28 2.97-24.22 6.45-29.08 16.32A46.1 46.1 0 1 0 45.83 0zm58.54 23.34h8.24c4.81 0 7.72 2.85 7.72 7v.06c0 4.67-3.63 7.09-8.15 7.09h-3.37v6.01h-4.44V23.34zm8 10.17c2.22 0 3.51-1.33 3.51-3.05v-.07c0-2-1.38-3.05-3.6-3.05h-3.43v6.17h3.52zm8.54 2.36v-.06c0-4.41 3.14-8 7.63-8 5.16 0 7.52 4 7.52 8.38 0 .35 0 .75-.06 1.15h-10.74a3.58 3.58 0 0 0 3.78 3 5.06 5.06 0 0 0 3.74-1.58l2.51 2.22a8.16 8.16 0 0 1-14.38-5.11zm10.89-1.27c-.26-2-1.41-3.28-3.26-3.28s-3 1.3-3.34 3.28h6.6zm5.73 4.47v-.06c0-3.37 2.56-4.93 6.22-4.93a11 11 0 0 1 3.77.63v-.25c0-1.82-1.12-2.82-3.31-2.82a11.36 11.36 0 0 0-4.27.84l-1.09-3.34a13.63 13.63 0 0 1 6-1.24 7.13 7.13 0 0 1 5.22 1.7 6.73 6.73 0 0 1 1.65 4.94v9h-4.24v-1.71a5.94 5.94 0 0 1-4.67 2c-2.88-.04-5.28-1.71-5.28-4.76zm10.06-1v-.79a6.79 6.79 0 0 0-2.8-.58c-1.87 0-3 .75-3 2.13v.06c0 1.18 1 1.87 2.39 1.87 2.03.01 3.41-1.16 3.41-2.7zm6-2.2v-.06a7.93 7.93 0 0 1 8.1-8 7.59 7.59 0 0 1 6.17 2.59l-2.68 2.88a4.51 4.51 0 0 0-3.52-1.7 4 4 0 0 0-3.74 4.21v.06a4 4 0 0 0 3.92 4.26 4.89 4.89 0 0 0 3.54-1.64l2.56 2.59a7.78 7.78 0 0 1-6.31 2.82 7.89 7.89 0 0 1-8.04-8.01zm14.88.03v-.06c0-4.41 3.14-8 7.64-8 5.16 0 7.52 4 7.52 8.38 0 .35 0 .75-.06 1.15h-10.75a3.58 3.58 0 0 0 3.77 3 5.06 5.06 0 0 0 3.75-1.58l2.51 2.22a8.16 8.16 0 0 1-14.38-5.11zm10.89-1.3c-.26-2-1.41-3.28-3.26-3.28s-2.99 1.28-3.38 3.28h6.6zm-75.85 23.14v-.05a10.25 10.25 0 0 1 10.52-10.43 10.41 10.41 0 0 1 8 3.11l-2.87 3.23a7.45 7.45 0 0 0-5.16-2.28 6 6 0 0 0-5.85 6.28v.06c0 3.46 2.39 6.34 5.85 6.34a7.28 7.28 0 0 0 5.3-2.36l2.82 2.85a10.31 10.31 0 0 1-8.27 3.6 10.18 10.18 0 0 1-10.34-10.35zm19.54 2.4v-.06a8.36 8.36 0 0 1 16.67-.06v.06a8.36 8.36 0 0 1-16.67.06zm12.39 0v-.06a4.1 4.1 0 0 0-4.06-4.26 4 4 0 0 0-4 4.21v.06a4.1 4.1 0 0 0 4.06 4.26 4 4 0 0 0 4-4.21zm6.4-7.81h4.38v3.11c.89-2.13 2.33-3.52 4.93-3.4v4.56h-.23c-2.91 0-4.7 1.76-4.7 5.45v5.7h-4.38V52.33zm11.41 0h4.38v2.22a5.67 5.67 0 0 1 4.81-2.51c3.6 0 7 2.82 7 8v.06c0 5.16-3.37 8-7 8a5.93 5.93 0 0 1-4.81-2.31v6.63h-4.38V52.33zm11.84 7.75v-.06c0-2.56-1.73-4.26-3.77-4.26s-3.75 1.7-3.75 4.26v.06c0 2.56 1.7 4.26 3.75 4.26s3.77-1.67 3.77-4.26zm5.14 5.65l1.87-2.88a8.73 8.73 0 0 0 4.87 1.84c1.27 0 1.84-.46 1.84-1.15v-.06c0-1-1.5-1.27-3.2-1.79-2.16-.63-4.61-1.64-4.61-4.64V57c0-3.14 2.54-4.9 5.65-4.9a10.69 10.69 0 0 1 5.76 1.79l-1.67 3a9.15 9.15 0 0 0-4.18-1.44c-1.07 0-1.61.46-1.61 1.07v.08c0 .86 1.47 1.27 3.14 1.84 2.16.72 4.67 1.76 4.67 4.58v.06c0 3.43-2.56 5-5.91 5a10.81 10.81 0 0 1-6.62-2.35z"/></svg>